<?xml version="1.0" standalone="no"?>
<!DOCTYPE svg PUBLIC "-//W3C//DTD SVG 20010904//EN"
 "http://www.w3.org/TR/2001/REC-SVG-20010904/DTD/svg10.dtd">
<svg version="1.0" xmlns="http://www.w3.org/2000/svg"
 width="300.000000pt" height="300.000000pt" viewBox="0 0 300.000000 300.000000"
 preserveAspectRatio="xMidYMid meet">
<metadata>
Created by potrace 1.15, written by Peter Selinger 2001-2017
</metadata>
<g transform="translate(0.000000,300.000000) scale(0.100000,-0.100000)"
fill="#000000" stroke="none">
<path d="M1240 2970 c-308 -58 -579 -199 -795 -415 -438 -438 -559 -1103 -305
-1670 335 -746 1224 -1082 1975 -745 746 335 1082 1224 745 1975 -200 445
-615 767 -1102 855 -145 26 -380 26 -518 0z m-150 -1368 c0 -474 3 -497 69
-563 41 -42 91 -59 171 -59 78 0 125 16 171 57 67 61 69 77 69 560 l0 423 50
0 50 0 0 -397 c0 -226 -5 -426 -10 -462 -19 -117 -78 -198 -175 -243 -42 -19
-66 -23 -155 -23 -87 1 -114 5 -156 23 -63 29 -116 81 -146 147 -23 50 -23 55
-26 503 l-3 452 46 0 45 0 0 -418z m850 -137 l0 -555 -50 0 -50 0 0 555 0 555
50 0 50 0 0 -555z"/>
</g>
</svg>
